<svg xmlns="http://www.w3.org/2000/svg" width="128" height="128" viewBox="0 0 128 128">
  <title>Database</title>
  <path d="M15,112.75h98A10.762,10.762,0,0,0,123.75,102V25A9.761,9.761,0,0,0,114,15.25H14A9.761,9.761,0,0,0,4.25,25v77A10.762,10.762,0,0,0,15,112.75Zm98-3.5H15A7.258,7.258,0,0,1,7.75,102V40.183h112.5V102A7.258,7.258,0,0,1,113,109.25ZM120.25,25V36.683H52.888L61.37,18.75H114A6.257,6.257,0,0,1,120.25,25ZM14,18.75H57.5L49.016,36.683H7.75V25A6.257,6.257,0,0,1,14,18.75Z"/>
  <path d="M21.57,33.466a5.75,5.75,0,1,0-5.75-5.75A5.756,5.756,0,0,0,21.57,33.466Zm0-8a2.25,2.25,0,1,1-2.25,2.25A2.253,2.253,0,0,1,21.57,25.466Z"/>
  <path d="M37.626,33.466a5.75,5.75,0,1,0-5.75-5.75A5.756,5.756,0,0,0,37.626,33.466Zm0-8a2.25,2.25,0,1,1-2.25,2.25A2.253,2.253,0,0,1,37.626,25.466Z"/>
  <path d="M67.522,29.466h44.745a1.75,1.75,0,0,0,0-3.5H67.522a1.75,1.75,0,0,0,0,3.5Z"/>
  <path d="M50.856,60.408a2.792,2.792,0,1,0-2.792-2.792A2.794,2.794,0,0,0,50.856,60.408Zm0-3.5a.709.709,0,1,1-.709.708A.709.709,0,0,1,50.856,56.908Z"/>
  <path d="M59.8,60.408A2.792,2.792,0,1,0,57,57.616,2.795,2.795,0,0,0,59.8,60.408Zm0-3.5a.709.709,0,1,1-.709.708A.709.709,0,0,1,59.8,56.908Z"/>
  <path d="M50.856,69.4a2.792,2.792,0,1,0,2.791,2.791A2.795,2.795,0,0,0,50.856,69.4Zm0,3.5a.709.709,0,1,1,.708-.709A.71.71,0,0,1,50.856,72.9Z"/>
  <path d="M59.8,69.4a2.792,2.792,0,1,0,2.791,2.791A2.795,2.795,0,0,0,59.8,69.4Zm0,3.5a.709.709,0,1,1,.708-.709A.71.71,0,0,1,59.8,72.9Z"/>
  <path d="M91.938,89.641a5.241,5.241,0,0,0-4.927,3.5H70A6.268,6.268,0,0,0,65.75,88.9V81.233H82.825a4.429,4.429,0,0,0,4.425-4.424V67.58a4.384,4.384,0,0,0-.924-2.675,4.379,4.379,0,0,0,.924-2.674V53a4.43,4.43,0,0,0-4.425-4.424H45.175A4.43,4.43,0,0,0,40.75,53v9.229a4.379,4.379,0,0,0,.924,2.674,4.384,4.384,0,0,0-.924,2.675v9.229a4.429,4.429,0,0,0,4.425,4.424H62.25V88.9A6.268,6.268,0,0,0,58,93.141H40.989a5.25,5.25,0,1,0,0,3.5H58a6.245,6.245,0,0,0,11.992,0H87.011a5.241,5.241,0,1,0,4.927-7ZM44.25,53a.925.925,0,0,1,.925-.924h37.65A.925.925,0,0,1,83.75,53v9.229a.925.925,0,0,1-.925.924H45.175a.925.925,0,0,1-.925-.924Zm0,23.807V67.58a.926.926,0,0,1,.925-.925h37.65a.926.926,0,0,1,.925.925v9.229a.925.925,0,0,1-.925.924H45.175A.925.925,0,0,1,44.25,76.809ZM36.062,96.641a1.75,1.75,0,1,1,1.75-1.75A1.753,1.753,0,0,1,36.062,96.641Zm27.938,1a2.75,2.75,0,1,1,2.75-2.75A2.753,2.753,0,0,1,64,97.641Zm27.938-1a1.75,1.75,0,1,1,1.75-1.75A1.753,1.753,0,0,1,91.938,96.641Z"/>
</svg>
