<svg xmlns="http://www.w3.org/2000/svg" width="128" height="128" viewBox="0 0 128 128">
  <title>Website Folder</title>
  <path d="M114,15.25H14A9.761,9.761,0,0,0,4.25,25v77A10.762,10.762,0,0,0,15,112.75h98A10.762,10.762,0,0,0,123.75,102V25A9.761,9.761,0,0,0,114,15.25ZM120.25,25V36.683H52.888L61.37,18.75H114A6.257,6.257,0,0,1,120.25,25ZM14,18.75H57.5L49.016,36.683H7.75V25A6.257,6.257,0,0,1,14,18.75Zm99,90.5H15A7.258,7.258,0,0,1,7.75,102V40.183h112.5V102A7.258,7.258,0,0,1,113,109.25Z"/>
  <path d="M21.57,33.466a5.75,5.75,0,1,0-5.75-5.75A5.756,5.756,0,0,0,21.57,33.466Zm0-8a2.25,2.25,0,1,1-2.25,2.25A2.253,2.253,0,0,1,21.57,25.466Z"/>
  <path d="M37.626,33.466a5.75,5.75,0,1,0-5.75-5.75A5.756,5.756,0,0,0,37.626,33.466Zm0-8a2.25,2.25,0,1,1-2.25,2.25A2.253,2.253,0,0,1,37.626,25.466Z"/>
  <path d="M67.522,29.466h44.745a1.75,1.75,0,0,0,0-3.5H67.522a1.75,1.75,0,0,0,0,3.5Z"/>
  <path d="M97.9,60.25h-4.25V53.066a1.75,1.75,0,0,0-1.75-1.75H59.62l-1.5-2.5a1.751,1.751,0,0,0-1.5-.849H29.9a1.751,1.751,0,0,0-1.75,1.75v50a1.75,1.75,0,0,0,1.75,1.75h68a1.749,1.749,0,0,0,1.75-1.75V62A1.75,1.75,0,0,0,97.9,60.25Zm-7.75-5.434V60.25H64.99l-3.266-5.434Zm6,43.15h-64.5v-46.5H55.627L62.5,62.9a1.749,1.749,0,0,0,1.5.849H96.146Z"/>
</svg>
